# xmcd
#
# Track frame offsets: 
#        150
#        55294
#        98146
#        140288
#        173789
#
# Disc length: 2640 seconds
#
# Revision: 2
# Processed by: cddbd v1.5.2PL0 Copyright (c) Steve Scherf et al.
# Submitted via: ExactAudioCopy v1.0b4
#
DISCID=3c0a4e05
DTITLE=Brad Mehldau - The Art Of The Trio (Additional Recordings 1997-
DTITLE=2001)
DYEAR=2011
DGENRE=Jazz
TTITLE0=London Blues
TTITLE1=Unrequited
TTITLE2=Ron's Place
TTITLE3=In The Wee Small Hours Of The Morning
TTITLE4=Lament For Linus
EXTD=YEAR: 2011
EXTT0=
EXTT1=
EXTT2=
EXTT3=
EXTT4=
PLAYORDER=
